<svg xmlns="http://www.w3.org/2000/svg" xml:space="preserve" style="fill-rule:evenodd;clip-rule:evenodd;stroke-linejoin:round;stroke-miterlimit:2" viewBox="0 0 16 14"><path d="M3.05 3.05A7.004 7.004 0 0 0 .999 8c0 1.856.739 3.638 2.051 4.95a.5.5 0 0 1-.707.707 8.002 8.002 0 0 1 0-11.314.5.5 0 0 1 .707.707m2.122 2.122c-1.551 1.552-1.551 4.104 0 5.656a.5.5 0 1 1-.708.708 5 5 0 0 1 0-7.072.5.5 0 1 1 .708.708m5.656-.708a.5.5 0 0 1 .708 0 5 5 0 0 1 0 7.072.5.5 0 1 1-.708-.708c1.551-1.552 1.551-4.104 0-5.656a.5.5 0 0 1 0-.708m2.122-2.12a.502.502 0 0 1 .707 0c3.103 3.103 3.103 8.21 0 11.313a.5.5 0 0 1-.707-.707A7.004 7.004 0 0 0 15.001 8a7.004 7.004 0 0 0-2.051-4.95.502.502 0 0 1 0-.707v.001ZM6 8c0-1.097.903-1.999 2-1.999s2 .902 2 2c0 .909-.62 1.709-1.5 1.936V15.5c0 .274-.226.5-.5.5a.503.503 0 0 1-.5-.5V9.937A2.006 2.006 0 0 1 6 8" style="fill:#69d0ff;fill-rule:nonzero" transform="translate(0 -2.199)"/></svg>